#!OML:ASF F:\VICON\USERDATA\INSTALL\Justin_Nancy\Justin_Nancy.ASF
:FULLY-SPECIFIED
:DEGREES
16
root 12.6882 16.6861 -15.8845 -8.17739 -37.6881 10.5577
lowerback 16.6833 -1.66148 -3.3994
upperback 3.09291 -2.99731 -2.06983
thorax -5.97368 -1.44731 0.369891
lowerneck -13.8399 0.677554 -10.2092
upperneck 19.3234 2.14058 4.95173
head 8.10522 0.738398 3.58208
rclavicle -4.83047e-014 3.57812e-014
rhumerus -66.3094 16.3183 -90.3621
rradius 109.896
rwrist -0.225508
rhand -12.7872 24.0636
rfingers 7.12502
rthumb 13.2983 -5.4921
lclavicle -4.83047e-014 3.57812e-014
lhumerus -35.7737 -12.2576 90.5889
lradius 110.324
lwrist 32.9634
lhand -16.1948 7.26178
lfingers 7.12502
lthumb 10.0122 37.0036
rfemur -27.4851 -8.65754 35.9818
rtibia 28.9694
rfoot 8.01143 4.70491
rtoes 39.0131
lfemur -14.9284 7.70267 -12.5563
ltibia 65.7031
lfoot 4.07991 -3.41508
ltoes -6.81411
17
root 12.5932 16.6168 -15.417 -8.00847 -37.5555 10.6405
lowerback 16.1284 -1.68327 -2.81101
upperback 3.05253 -2.9064 -2.18628
thorax -5.7537 -1.41726 -0.121663
lowerneck -13.581 0.664619 -9.87096
upperneck 19.2606 2.0591 4.75218
head 8.05059 0.704129 3.4448
rclavicle -2.43511e-014 -2.78299e-015
rhumerus -66.226 16.7059 -90.8117
rradius 110.491
rwrist 0.42017
rhand -13.0749 24.2479
rfingers 7.12502
rthumb 13.021 -5.32575
lclavicle -2.43511e-014 -2.78299e-015
lhumerus -36.3228 -11.6767 90.6602
lradius 110.68
lwrist 31.1349
lhand -14.3422 7.88489
lfingers 7.12502
lthumb 11.7991 37.5325
rfemur -27.9282 -8.40583 35.6362
rtibia 32.5712
rfoot 0.88063 -1.60368
rtoes 24.7894
lfemur -16.3757 7.50572 -12.1066
ltibia 66.1878
lfoot 2.69051 0.160466
ltoes -6.69767
18
root 12.4873 16.5465 -14.9562 -7.87244 -37.6266 10.6025
lowerback 16.0368 -1.49164 -2.65687
upperback 2.83907 -2.60682 -1.90028
thorax -5.9284 -1.26534 0.0332815
lowerneck -13.3116 0.74897 -9.85736
upperneck 19.3389 2.16929 4.61607
head 8.02224 0.739159 3.40522
rclavicle 5.52621e-014 1.78906e-014
rhumerus -66.1917 17.3138 -90.6827
rradius 111.128
rwrist 0.612426
rhand -13.0791 24.2865
rfingers 7.12502
rthumb 13.0169 -5.28735
lclavicle 5.52621e-014 1.78906e-014
lhumerus -37.4161 -12.0954 92.0367
lradius 111.415
lwrist 33.5056
lhand -19.6795 5.93786
lfingers 7.12502
lthumb 6.64918 35.8135
rfemur -28.1652 -7.6795 35.2361
rtibia 36.2392
rfoot -1.61457 -5.74803
rtoes 21.468
lfemur -17.6173 7.2159 -11.4035
ltibia 66.0024
lfoot 1.98787 3.44607
ltoes -4.45706
19
root 12.3746 16.4742 -14.5033 -8.02532 -37.6997 10.9445
lowerback 16.1543 -1.29179 -3.02712
upperback 2.55287 -2.39747 -1.63102
thorax -6.27397 -1.14369 0.491597
lowerneck -13.0499 0.807402 -9.98935
upperneck 19.4761 2.26019 4.55234
head 8.01406 0.759665 3.41358
rclavicle 3.77691e-014 7.15625e-015
rhumerus -66.1673 18.1813 -90.4726
rradius 111.761
rwrist 0.462725
rhand -12.7984 24.0056
rfingers 7.12502
rthumb 13.2875 -5.55082
lclavicle 3.77691e-014 7.15625e-015
lhumerus -38.7359 -12.1296 93.4393
lradius 111.914
lwrist 35.8475
lhand -24.2341 1.88747
lfingers 7.12502
lthumb 2.25129 31.8553
rfemur -28.382 -6.55862 34.2896
rtibia 39.6015
rfoot -4.80381 -5.17018
rtoes 22.2266
lfemur -18.5957 6.78564 -10.9784
ltibia 65.094
lfoot 1.02475 5.09358
ltoes 0.81821
20
root 12.2693 16.3777 -14.0784 -7.20354 -37.8607 9.94493
lowerback 16.1453 -1.3153 -2.39637
upperback 2.42539 -2.28978 -1.22858
thorax -6.4155 -1.09609 0.541683
lowerneck -13.0385 0.892443 -9.95311
upperneck 19.4358 2.36973 4.548
head 7.99004 0.815271 3.41568
rclavicle 8.15017e-015 -2.38542e-014
rhumerus -65.55 18.9822 -90.4962
rradius 112.279
rwrist 0.171133
rhand -12.9811 23.8776
rfingers 7.12502
rthumb 13.1114 -5.69022
lclavicle 8.15017e-015 -2.38542e-014
lhumerus -39.8904 -12.5709 94.7884
lradius 112.654
lwrist 39.6133
lhand -29.7338 -2.34626
lfingers 7.12502
lthumb -3.06041 27.6115
rfemur -28.7635 -5.01281 34.4967
rtibia 42.6312
rfoot -7.95716 -7.6202
rtoes 22.0304
lfemur -20.1504 6.33251 -9.13376
ltibia 63.813
lfoot 0.599532 5.88381
ltoes 8.16673
21
root 12.1541 16.2957 -13.6493 -6.5685 -38.1039 8.98571
lowerback 16.1651 -1.27229 -1.77187
upperback 2.44463 -2.10175 -0.918184
thorax -6.4203 -1.015 0.478823
lowerneck -13.379 0.976896 -9.6727
upperneck 19.5163 2.46244 4.55269
head 8.07297 0.88093 3.38796
rclavicle 8.78628e-014 -2.38542e-015
rhumerus -64.6178 19.4449 -90.4646
rradius 112.666
rwrist -0.158337
rhand -13.35 23.9447
rfingers 7.12502
rthumb 12.7558 -5.64561
lclavicle 8.78628e-014 -2.38542e-015
lhumerus -38.7257 -7.31825 90.9737
lradius 110.197
lwrist 19.3594
lhand -4.21686 3.70125
lfingers 7.12502
lthumb 21.5457 32.5228
rfemur -28.5889 -3.55651 34.5965
rtibia 45.3635
rfoot -10.9983 -10.6596
rtoes 20.0104
lfemur -21.3728 5.62128 -7.30613
ltibia 61.9765
lfoot 0.0989162 6.82863
ltoes 16.0182
22
root 12.0406 16.2197 -13.2246 -6.03572 -38.1091 8.26119
lowerback 16.2173 -1.2488 -1.41685
upperback 2.49233 -1.98875 -0.630844
thorax -6.40116 -0.965292 0.559744
lowerneck -13.9907 1.02316 -9.4272
upperneck 19.7099 2.52144 4.62921
head 8.24411 0.934275 3.395
rclavicle -7.94145e-014 1.03368e-014
rhumerus -63.3351 19.7176 -90.2566
rradius 112.707
rwrist -0.632094
rhand -13.4639 24.2426
rfingers 7.12502
rthumb 12.646 -5.35454
lclavicle -7.94145e-014 1.03368e-014
lhumerus -39.9322 -8.41319 92.5975
lradius 111.218
lwrist 26.3156
lhand -15.965 4.11257
lfingers 7.12502
lthumb 10.2339 33.8436
rfemur -28.2918 -2.68731 34.5106
rtibia 47.8287
rfoot -13.2901 -11.5904
rtoes 17.7511
lfemur -22.489 4.72658 -5.82323
ltibia 59.8966
lfoot -0.390839 7.8952
ltoes 15.9807
23
root 11.9335 16.1402 -12.8068 -5.20958 -38.0422 7.26155
lowerback 16.165 -1.25597 -0.742424
upperback 2.54299 -1.8634 -0.398688
thorax -6.33393 -0.917477 0.395842
lowerneck -14.3295 0.978843 -9.11765
upperneck 19.5978 2.4042 4.73654
head 8.27713 0.919745 3.37143
rclavicle -1.13307e-014 -7.15625e-015
rhumerus -61.9157 19.6128 -90.0969
rradius 112.679
rwrist -1.28385
rhand -13.4593 24.0335
rfingers 7.12502
rthumb 12.6504 -5.56338
lclavicle -1.13307e-014 -7.15625e-015
lhumerus -40.8416 -8.05228 92.7812
lradius 112.174
lwrist 27.8704
lhand -16.914 6.52555
lfingers 7.12502
lthumb 9.3183 36.2996
rfemur -28.0355 -2.2258 34.7023
rtibia 50.0652
rfoot -15.5504 -12.0035
rtoes 15.8839
lfemur -23.6289 4.06105 -4.13073
ltibia 57.5148
lfoot -0.0404068 8.50794
ltoes 5.59859
24
root 11.8279 16.0656 -12.3844 -4.38378 -38.0349 6.39219
lowerback 16.2159 -1.2314 -0.102729
upperback 2.44858 -1.7057 -0.205791
thorax -6.47657 -0.851208 0.207604
lowerneck -14.7487 0.91906 -8.77109
upperneck 19.6576 2.27141 4.7879
head 8.38528 0.890473 3.32654
rclavicle -1.03467e-013 5.56597e-015
rhumerus -60.7325 19.3006 -89.8584
rradius 112.683
rwrist -1.96589
rhand -13.4253 23.8517
rfingers 7.12502
rthumb 12.6832 -5.74316
lclavicle -1.03467e-013 5.56597e-015
lhumerus -41.5954 -7.48621 92.5618
lradius 111.942
lwrist 27.1495
lhand -14.9049 6.10658
lfingers 7.12502
lthumb 11.2565 35.7846
rfemur -27.7783 -2.17073 34.8645
rtibia 52.0583
rfoot -17.6224 -13.2758
rtoes 11.4139
lfemur -24.7631 3.23867 -2.51416
ltibia 54.6992
lfoot 0.700017 8.70084
ltoes -4.02226
25
root 11.7176 16.0057 -11.9585 -3.76706 -37.8726 5.8803
lowerback 16.0983 -1.28239 0.430532
upperback 2.38199 -1.67577 -0.157575
thorax -6.49711 -0.847698 -0.051285
lowerneck -15.092 0.88113 -8.42422
upperneck 19.7266 2.15446 4.84966
head 8.48126 0.869181 3.28526
rclavicle -6.1822e-014 -7.95139e-016
rhumerus -59.5791 18.8917 -89.6897
rradius 112.552
rwrist -2.51695
rhand -13.6969 23.8008
rfingers 7.12502
rthumb 12.4213 -5.81011
lclavicle -6.1822e-014 -7.95139e-016
lhumerus -42.3751 -7.46091 92.6679
lradius 111.866
lwrist 27.8182
lhand -16.3177 7.13197
lfingers 7.12502
lthumb 9.89366 36.8795
rfemur -27.4687 -2.60341 34.7451
rtibia 53.8439
rfoot -19.715 -14.1979
rtoes 9.01062
lfemur -25.6905 2.30321 -1.25031
ltibia 51.4129
lfoot 2.3015 8.36524
ltoes -22.4907
26
root 11.603 15.9618 -11.5386 -3.31137 -37.5641 5.53981
lowerback 15.9227 -1.30468 0.807136
upperback 2.30685 -1.63254 -0.0583
thorax -6.48833 -0.833741 -0.17127
lowerneck -14.7348 0.746848 -8.60469
upperneck 19.4527 1.92218 5.13248
head 8.33476 0.779639 3.37369
rclavicle 2.8625e-014 -1.59028e-015
rhumerus -58.6345 18.3044 -89.2864
rradius 112.397
rwrist -3.02841
rhand -14.1107 23.8626
rfingers 7.12502
rthumb 12.0224 -5.77211
lclavicle 2.8625e-014 -1.59028e-015
lhumerus -43.2123 -7.36844 92.886
lradius 111.565
lwrist 27.8834
lhand -17.0052 7.297
lfingers 7.12502
lthumb 9.23036 37.075
rfemur -27.0657 -3.31595 34.4521
rtibia 55.6053
rfoot -22.2161 -14.2951
rtoes 10.515
lfemur -26.3073 1.21124 -0.088644
ltibia 47.6778
lfoot 3.03838 7.97905
ltoes -25.9256
27
root 11.4806 15.9427 -11.1244 -3.26339 -37.2598 5.70458
lowerback 16.3203 -1.23005 0.468737
upperback 1.92514 -1.56822 0.156824
thorax -7.09974 -0.788729 0.249918
lowerneck -13.9102 0.625148 -8.95996
upperneck 19.1289 1.74264 5.22425
head 8.08715 0.67795 3.42387
rclavicle 5.00937e-014 -1.27222e-014
rhumerus -58.4985 17.7292 -88.7378
rradius 112.381
rwrist -3.41053
rhand -14.4508 23.6039
rfingers 7.12502
rthumb 11.6944 -6.04967
lclavicle 5.00937e-014 -1.27222e-014
lhumerus -44.3495 -7.21036 93.3
lradius 111.125
lwrist 27.7803
lhand -17.4974 7.83713
lfingers 7.12502
lthumb 8.75533 37.6355
rfemur -26.5497 -4.37572 33.6877
rtibia 57.5455
rfoot -24.2445 -14.2186
rtoes 10.0845
lfemur -26.4604 -0.315232 0.721138
ltibia 43.5132
lfoot 2.57187 7.90482
ltoes -22.6548
28
root 11.3551 15.9422 -10.7092 -3.49607 -37.3103 6.29856
lowerback 17.2152 -0.966258 -0.579068
upperback 1.38596 -1.3781 0.508093
thorax -8.14211 -0.648667 1.20588
lowerneck -13.8586 0.544409 -9.22235
upperneck 19.3359 1.70226 5.12755
head 8.15067 0.62404 3.43482
rclavicle 4.73108e-014 -9.54166e-015
rhumerus -58.5989 17.4692 -87.9703
rradius 112.409
rwrist -4.01464
rhand -14.8407 23.1228
rfingers 7.12502
rthumb 11.3184 -6.55176
lclavicle 4.73108e-014 -9.54166e-015
lhumerus -45.579 -7.03321 94.2236
lradius 110.741
lwrist 27.6137
lhand -18.758 8.26557
lfingers 7.12502
lthumb 7.53872 38.1112
rfemur -26.1014 -5.31549 32.4263
rtibia 59.8283
rfoot -25.7805 -13.1118
rtoes 10.6957
lfemur -25.922 -2.1315 1.18302
ltibia 38.9277
lfoot 1.96165 7.84256
ltoes -26.6247
29
root 11.2367 15.939 -10.3015 -3.72502 -37.6085 6.83733
lowerback 17.1212 -0.838034 -0.916224
upperback 1.84177 -1.30429 0.182593
thorax -7.59851 -0.616851 1.02191
lowerneck -15.261 0.423343 -8.72849
upperneck 19.3395 1.49234 5.44769
head 8.4197 0.609301 3.46098
rclavicle -4.7112e-014 5.56597e-015
rhumerus -57.1335 16.8528 -87.8927
rradius 112.329
rwrist -4.60529
rhand -15.5717 22.6947
rfingers 7.12502
rthumb 10.6134 -7.01729
lclavicle -4.7112e-014 5.56597e-015
lhumerus -45.2946 -7.62898 93.9524
lradius 110.441
lwrist 27.5268
lhand -20.3852 8.05847
lfingers 7.12502
lthumb 5.9679 37.9544
rfemur -25.8625 -5.90738 31.0531
rtibia 62.6795
rfoot -27.5354 -10.2432
rtoes 16.4723
lfemur -25.0346 -3.96588 1.74577
ltibia 34.359
lfoot 1.5153 7.70349
ltoes -23.066
